<?xml version="1.0" ?><svg data-name="Layer 3" id="Layer_3" viewBox="0 0 32 32" xmlns="http://www.w3.org/2000/svg"><defs><style>.cls-1{fill:none;stroke:#3c4044;stroke-linecap:round;stroke-linejoin:round;}</style></defs><title/><path class="cls-1" d="M24.12,28.93h0Z"/><path class="cls-1" d="M19.94,24.87a4,4,0,0,0,4,4.06H8L5.84,15.84H26.28l-.86,5.24A3.9,3.9,0,0,0,24,20.8,4,4,0,0,0,19.94,24.87Z"/><rect class="cls-1" height="3.16" width="10.22" x="4.27" y="12.68"/><rect class="cls-1" height="3.16" width="9.93" x="17.63" y="12.68"/><rect class="cls-1" height="10.84" width="3.13" x="14.49" y="5"/><path class="cls-1" d="M28,24.87a4,4,0,0,1-3.88,4.06H24a4.07,4.07,0,0,1,0-8.13,3.9,3.9,0,0,1,1.45.28A4.05,4.05,0,0,1,28,24.87Z"/><line class="cls-1" x1="23.97" x2="23.97" y1="23.06" y2="27.13"/><line class="cls-1" x1="21.96" x2="25.99" y1="25.09" y2="25.09"/></svg>